<svg width="132" height="56" viewBox="0 0 132 56" fill="none" xmlns="http://www.w3.org/2000/svg">
<g clip-path="url(#clip0_1_124)">
<path d="M0 24.3353V29.2598C1.65275 29.2586 3.28951 29.5893 4.81662 30.2329C6.34372 30.8765 7.73121 31.8203 8.89969 33.0104C10.0679 34.2001 10.9943 35.6126 11.626 37.167C12.2577 38.7215 12.5823 40.3875 12.5812 42.0698H17.4144C17.41 37.3683 15.574 32.8606 12.3092 29.5358C9.04442 26.211 4.61755 24.3407 0 24.3353H0Z" fill="#06163A"/>
<path d="M24.1704 15.4698H16.511C20.3858 17.97 23.6689 21.3124 26.125 25.2572V17.4585C26.1246 16.931 25.9186 16.4251 25.552 16.0522C25.1855 15.6793 24.6886 15.4698 24.1704 15.4698Z" fill="#06163A"/>
<path d="M4.8125 15.4698H0V19.9036C5.77208 19.9097 11.306 22.247 15.3876 26.4027C19.4691 30.5583 21.7649 36.1928 21.7711 42.0698H26.125V37.1698C25.1406 31.7844 22.5775 26.8287 18.7732 22.9553C14.9689 19.0818 10.1018 16.4721 4.8125 15.4698Z" fill="#06163A"/>
<path d="M37.9713 18.3979H34.9037V34.1409H37.9713V18.3979Z" fill="#06163A"/>
<path d="M49.2504 25.2187C48.7398 24.7461 48.142 24.3813 47.4918 24.1456C46.0951 23.6463 44.5731 23.6463 43.1764 24.1456C42.5259 24.3811 41.9279 24.7459 41.4171 25.2187C40.9161 25.689 40.5159 26.2595 40.2414 26.8945C39.9578 27.5873 39.8118 28.3304 39.8118 29.081C39.8118 29.8315 39.9578 30.5746 40.2414 31.2674C40.5148 31.9043 40.9152 32.4764 41.4171 32.9474C41.927 33.4206 42.5247 33.7852 43.175 34.0198C44.5715 34.5201 46.0939 34.5201 47.4904 34.0198C48.141 33.7852 48.7389 33.4206 49.2491 32.9474C49.7508 32.4762 50.1511 31.9041 50.4247 31.2674C50.7083 30.5746 50.8543 29.8315 50.8543 29.081C50.8543 28.3304 50.7083 27.5873 50.4247 26.8945C50.1505 26.2597 49.7508 25.6892 49.2504 25.2187ZM47.1439 30.9349C46.6472 31.3905 46.0023 31.6427 45.3338 31.6427C44.6652 31.6427 44.0203 31.3905 43.5236 30.9349C43.1061 30.4101 42.8782 29.7553 42.8782 29.0799C42.8782 28.4046 43.1061 27.7497 43.5236 27.2249C44.0203 26.7693 44.6652 26.5172 45.3338 26.5172C46.0023 26.5172 46.6472 26.7693 47.1439 27.2249C47.5615 27.7497 47.7893 28.4046 47.7893 29.0799C47.7893 29.7553 47.5615 30.4101 47.1439 30.9349Z" fill="#06163A"/>
<path d="M60.2635 25.3538H60.225C60.0831 25.151 59.9184 24.9659 59.7341 24.8022C59.5109 24.6012 59.2638 24.4295 58.9985 24.2912C58.328 23.9409 57.5837 23.7624 56.8301 23.7711C56.1698 23.7593 55.5167 23.9132 54.9285 24.2191C54.3804 24.5081 53.8965 24.9086 53.5068 25.3958C53.1093 25.898 52.8044 26.4693 52.6068 27.0821C52.3967 27.7134 52.2896 28.3755 52.2899 29.0421C52.2821 29.7576 52.3999 30.4688 52.6378 31.1421C52.8532 31.7566 53.1891 32.3201 53.625 32.7983C54.0593 33.2663 54.5863 33.635 55.1712 33.8798C55.8071 34.1437 56.4886 34.2746 57.1753 34.2648C57.6831 34.2559 58.1853 34.1537 58.6575 33.9631C59.1871 33.7586 59.6459 33.4 59.9768 32.932H60.0181V33.912C60.0296 34.2389 59.9767 34.5648 59.8625 34.8705C59.7483 35.1763 59.5752 35.4556 59.3533 35.6921C59.0717 35.9458 58.7425 36.1386 58.3856 36.2589C58.0287 36.3792 57.6516 36.4245 57.277 36.3921C56.6831 36.3989 56.0944 36.2782 55.5493 36.0379C55.007 35.7912 54.501 35.4689 54.0458 35.0803L52.3483 37.6598C53.0421 38.2288 53.8531 38.631 54.7209 38.8365C55.5795 39.0375 56.4578 39.1388 57.3389 39.1382C59.2749 39.1382 60.7166 38.6419 61.6639 37.6493C62.6113 36.6567 63.0852 35.2026 63.0857 33.2869V24.021H60.2669L60.2635 25.3538ZM60.0793 29.9661C59.9582 30.2624 59.7809 30.5315 59.5574 30.7578C59.33 30.9886 59.0632 31.1755 58.7703 31.3094C58.466 31.447 58.1368 31.518 57.804 31.518C57.4711 31.518 57.1419 31.447 56.8377 31.3094C56.5486 31.1736 56.2854 30.9869 56.0601 30.7578C55.8357 30.5296 55.6577 30.2585 55.5362 29.9602C55.4147 29.6618 55.3522 29.342 55.3522 29.019C55.3522 28.696 55.4147 28.3762 55.5362 28.0779C55.6577 27.7795 55.8357 27.5085 56.0601 27.2802C56.2855 27.0511 56.5487 26.8642 56.8377 26.7279C57.142 26.5908 57.4712 26.52 57.804 26.52C58.1368 26.52 58.4659 26.5908 58.7703 26.7279C59.0631 26.8623 59.3298 27.0494 59.5574 27.2802C59.8949 27.6256 60.1245 28.0649 60.2174 28.5428C60.3102 29.0207 60.2622 29.5159 60.0793 29.9661Z" fill="#06163A"/>
<path d="M74.6103 25.2187C74.0996 24.7461 73.5018 24.3813 72.8516 24.1456C71.455 23.6463 69.9329 23.6463 68.5362 24.1456C67.8857 24.3811 67.2877 24.7459 66.7769 25.2187C66.2759 25.689 65.8757 26.2595 65.6013 26.8945C65.3176 27.5873 65.1716 28.3304 65.1716 29.081C65.1716 29.8315 65.3176 30.5746 65.6013 31.2674C65.8746 31.9043 66.275 32.4764 66.7769 32.9474C67.2872 33.4207 67.8854 33.7854 68.5362 34.0198C69.9327 34.5201 71.4551 34.5201 72.8516 34.0198C73.5021 33.7852 74.1001 33.4206 74.6103 32.9474C75.1122 32.4764 75.5125 31.9043 75.7859 31.2674C76.0695 30.5746 76.2155 29.8315 76.2155 29.081C76.2155 28.3304 76.0695 27.5873 75.7859 26.8945C75.5115 26.2595 75.1112 25.689 74.6103 25.2187ZM72.5038 30.9349C72.007 31.3905 71.3621 31.6427 70.6936 31.6427C70.025 31.6427 69.3801 31.3905 68.8834 30.9349C68.4659 30.4101 68.238 29.7553 68.238 29.0799C68.238 28.4046 68.4659 27.7497 68.8834 27.2249C69.3801 26.7693 70.025 26.5172 70.6936 26.5172C71.3621 26.5172 72.007 26.7693 72.5038 27.2249C72.9213 27.7497 73.1491 28.4046 73.1491 29.0799C73.1491 29.7553 72.9213 30.4101 72.5038 30.9349Z" fill="#06163A"/>
<path d="M80.2849 24.091H78.6397V34.1409H80.2849V24.091Z" fill="#06163A"/>
<path d="M79.4626 18.9376C79.3031 18.9345 79.1447 18.9654 78.9976 19.0282C78.8504 19.091 78.7177 19.1843 78.6081 19.3023C78.4408 19.474 78.3272 19.6923 78.2816 19.9297C78.2359 20.167 78.2603 20.4128 78.3517 20.6361C78.443 20.8593 78.5972 21.0501 78.7949 21.1842C78.9925 21.3184 79.2247 21.39 79.4623 21.39C79.6998 21.39 79.932 21.3184 80.1297 21.1842C80.3273 21.0501 80.4815 20.8593 80.5729 20.6361C80.6642 20.4128 80.6886 20.167 80.643 19.9297C80.5974 19.6923 80.4838 19.474 80.3165 19.3023C80.207 19.1843 80.0745 19.0909 79.9274 19.0281C79.7804 18.9653 79.6221 18.9345 79.4626 18.9376Z" fill="#06163A"/>
<path d="M92.4543 25.3398C91.9915 24.8587 91.4348 24.4817 90.8201 24.2331C90.1455 23.9624 89.4257 23.8276 88.7006 23.8362C88.0175 23.8282 87.3421 23.9828 86.7281 24.2877C86.1234 24.5939 85.5881 25.0252 85.1565 25.554H85.1125V24.091H83.4694V39.0374H85.1125V32.3594H85.1544C85.5037 32.9719 86.0127 33.4739 86.625 33.8098C87.3359 34.2151 88.1404 34.4191 88.9549 34.4006C89.6218 34.4049 90.2824 34.2696 90.8958 34.003C91.488 33.7472 92.0226 33.3709 92.4667 32.897C92.9177 32.4128 93.2723 31.8442 93.511 31.2226C94.017 29.8666 94.017 28.3688 93.511 27.0128C93.2702 26.3898 92.9111 25.8213 92.4543 25.3398ZM91.8741 30.5898C91.7207 31.0274 91.4808 31.4283 91.1692 31.7677C90.8576 32.1071 90.481 32.3779 90.0625 32.5631C89.1373 32.9489 88.1002 32.9489 87.175 32.5631C86.756 32.3779 86.3788 32.1069 86.0668 31.7671C85.7548 31.4273 85.5147 31.0259 85.3614 30.5877C85.0384 29.6353 85.0384 28.6001 85.3614 27.6477C85.5147 27.2096 85.7548 26.8081 86.0668 26.4683C86.3788 26.1285 86.756 25.8576 87.175 25.6723C88.1002 25.2865 89.1373 25.2865 90.0625 25.6723C90.4815 25.8576 90.8587 26.1285 91.1707 26.4683C91.4827 26.8081 91.7228 27.2096 91.8761 27.6477C92.1991 28.6001 92.1991 29.6353 91.8761 30.5877L91.8741 30.5898Z" fill="#06163A"/>
<path d="M102.178 29.1198C101.865 28.8818 101.517 28.6969 101.146 28.5724C100.739 28.4327 100.324 28.3213 99.902 28.2392C99.5858 28.1842 99.2726 28.1127 98.9636 28.025C98.6882 27.9488 98.4199 27.8481 98.1619 27.724C97.9553 27.6286 97.7686 27.4936 97.6119 27.3264C97.4787 27.1769 97.407 26.9809 97.4119 26.779C97.4086 26.5612 97.4713 26.3476 97.5913 26.1672C97.7095 25.989 97.8641 25.8389 98.0444 25.7269C98.2374 25.6081 98.4476 25.5212 98.6672 25.4693C98.8922 25.4126 99.123 25.3837 99.3547 25.3832C99.7957 25.3692 100.231 25.4849 100.609 25.7164C100.951 25.9351 101.236 26.233 101.443 26.5858L102.814 25.6625C102.51 25.0522 102.017 24.5613 101.41 24.266C100.8 23.9772 100.133 23.8306 99.4599 23.8369C99.0034 23.8358 98.5489 23.9009 98.1104 24.0301C97.6899 24.1522 97.291 24.3412 96.9286 24.5901C96.5819 24.8284 96.2934 25.1442 96.085 25.5134C95.8692 25.9066 95.7601 26.3511 95.7687 26.8014C95.7516 27.2422 95.8498 27.6797 96.0534 28.0691C96.2391 28.3948 96.4983 28.6707 96.8096 28.8741C97.1533 29.0948 97.5259 29.2647 97.9165 29.3788C98.3386 29.5076 98.7816 29.6222 99.2454 29.7225C99.5131 29.7799 99.7732 29.8443 100.026 29.9157C100.263 29.9804 100.49 30.078 100.701 30.2055C100.887 30.3178 101.048 30.4677 101.175 30.6458C101.302 30.8431 101.365 31.076 101.355 31.3115C101.362 31.559 101.296 31.803 101.165 32.0115C101.034 32.2091 100.861 32.3742 100.659 32.4945C100.44 32.6272 100.201 32.7219 99.9522 32.7745C99.6993 32.8311 99.4411 32.8599 99.1822 32.8606C98.6696 32.8808 98.1618 32.7542 97.7164 32.4952C97.3067 32.2297 96.9462 31.8928 96.6515 31.4998L95.3452 32.5309C95.7496 33.1703 96.3236 33.68 97.0007 34.0009C97.6947 34.2814 98.4371 34.4166 99.1836 34.3985C99.6697 34.3989 100.154 34.3414 100.627 34.227C101.077 34.1211 101.506 33.9358 101.893 33.6796C102.263 33.4296 102.569 33.0937 102.787 32.6996C103.023 32.2523 103.139 31.7498 103.125 31.2422C103.138 30.8058 103.052 30.3723 102.872 29.9759C102.708 29.6399 102.471 29.3469 102.178 29.1198Z" fill="#06163A"/>
<path d="M114.03 31.7574V24.091H112.385V28.991C112.39 29.5193 112.33 30.0461 112.205 30.559C112.1 30.9987 111.913 31.4139 111.656 31.7826C111.411 32.1254 111.084 32.3988 110.706 32.5771C110.272 32.7735 109.8 32.8692 109.325 32.8571C109.004 32.8836 108.681 32.8311 108.383 32.704C108.086 32.577 107.823 32.3791 107.616 32.127C107.221 31.5416 107.028 30.8392 107.066 30.1299V24.091H105.421V30.2972C105.416 30.8598 105.491 31.4202 105.643 31.9611C105.775 32.4407 106.01 32.8846 106.33 33.261C106.651 33.629 107.051 33.9165 107.499 34.101C108.033 34.3132 108.603 34.4155 109.176 34.402C109.561 34.4052 109.945 34.3507 110.315 34.2403C110.649 34.1413 110.968 33.997 111.264 33.8112C111.533 33.6425 111.777 33.4366 111.991 33.1994C112.183 32.9884 112.343 32.7494 112.466 32.4903H112.508C112.508 32.7773 112.515 33.0573 112.529 33.3303C112.544 33.6033 112.55 33.8754 112.55 34.1465H114.111C114.111 33.8166 114.097 33.4514 114.069 33.051C114.04 32.6506 114.027 32.2194 114.03 31.7574Z" fill="#06163A"/>
<path d="M131.81 26.2925C131.7 25.8062 131.484 25.3515 131.177 24.9625C130.867 24.5861 130.468 24.2969 130.017 24.1225C129.45 23.914 128.849 23.8157 128.246 23.8327C127.591 23.8036 126.943 23.9797 126.389 24.3374C125.876 24.7121 125.446 25.1912 125.124 25.7444C125.04 25.5722 124.931 25.3753 124.797 25.1536C124.648 24.9143 124.459 24.7034 124.238 24.5306C123.967 24.3209 123.666 24.1555 123.344 24.0406C122.913 23.8929 122.459 23.8238 122.004 23.8362C121.619 23.833 121.236 23.8875 120.866 23.9979C120.532 24.0969 120.213 24.2412 119.916 24.427C119.648 24.596 119.403 24.8019 119.189 25.0388C118.997 25.2498 118.837 25.4888 118.715 25.7479H118.672C118.672 25.4609 118.665 25.1823 118.651 24.9079C118.638 24.6335 118.63 24.364 118.63 24.0917H117.07C117.07 24.4216 117.084 24.7868 117.111 25.1872C117.139 25.5876 117.153 26.0172 117.153 26.4759V34.1416H118.8V29.2458C118.795 28.7173 118.855 28.1903 118.979 27.6771C119.084 27.2373 119.271 26.8219 119.529 26.4535C119.774 26.1107 120.101 25.8372 120.478 25.659C120.913 25.4625 121.385 25.3668 121.86 25.379C122.142 25.3545 122.425 25.4064 122.68 25.5294C122.936 25.6523 123.155 25.842 123.315 26.079C123.668 26.8155 123.821 27.6349 123.758 28.452V34.143H125.4V28.3428C125.395 27.9295 125.463 27.5186 125.601 27.1297C125.723 26.785 125.909 26.4678 126.151 26.1959C126.378 25.9414 126.655 25.7368 126.963 25.5946C127.274 25.4511 127.612 25.3778 127.954 25.3797C128.36 25.3647 128.765 25.4454 129.135 25.6156C129.427 25.7593 129.68 25.9734 129.873 26.2393C130.058 26.5026 130.188 26.8022 130.253 27.1192C130.323 27.4509 130.359 27.7893 130.358 28.1286V34.1416H132V28.0425C132.006 27.4535 131.942 26.866 131.81 26.2925Z" fill="#06163A"/>
</g>
<defs>
<clipPath id="clip0_1_124">
<rect width="132" height="56" fill="white"/>
</clipPath>
</defs>
</svg>
